<?xml version="1.0" encoding="UTF-8" standalone="no"?>
<!-- Created with Inkscape (http://www.inkscape.org/) -->

<svg
   width="210mm"
   height="297mm"
   viewBox="0 0 210 297"
   version="1.1"
   id="svg5"
   xml:space="preserve"
   xmlns="http://www.w3.org/2000/svg"
   xmlns:svg="http://www.w3.org/2000/svg"><defs
     id="defs2" /><g
     id="layer1"><path
       id="path528"
       style="fill:none;stroke:#ff0000;stroke-width:0.181873px;stroke-linecap:butt;stroke-linejoin:miter;stroke-opacity:1"
       d="m 62.654034,189.05075 c 0.591533,-0.0945 0.8009,-0.71378 0.854648,-0.92502 0.187368,-0.7364 -0.797301,-0.26014 -0.797301,-0.26014 0,0 -0.908367,-0.69707 -0.882778,0.23566 0.007,0.25599 0.248536,0.6692 0.825431,0.9495 z m -2.83865,-6.69998 c -3e-6,0.48563 -0.393684,0.87931 -0.879313,0.87931 -0.48563,0 -0.87931,-0.39368 -0.879313,-0.87931 -1e-6,-0.48563 0.393681,-0.87931 0.879313,-0.87931 0.485632,0 0.879314,0.39368 0.879313,0.87931 z m 3.757808,6.9779 c 0.671849,-1.47096 0.04854,-2.80548 0.04854,-2.80548 0,0 0.752496,-4.84477 -2.178226,-5.68629 -2.638548,-0.75764 -3.607908,-2.3722 -4.313912,-2.34371 -0.684151,0.65711 -0.66402,1.49215 -0.660234,2.36638 0.07965,0.1971 -0.756934,0.8424 -0.756934,0.8424 0,0 -18.923378,14.38176 -8.650687,39.57689 4.94711,0.35144 5.622946,0.3244 5.622946,0.3244 0,0 0.299945,0.23331 -0.973202,-3.35214 0.688945,-1.11045 2.02934,-1.84598 2.810991,-2.0242 0.605664,-0.13809 0.792996,0.29924 0.439061,0.55263 -0.865069,0.3244 -1.136857,0.48768 -2.384983,1.47157 -0.53046,0.81625 0.4456,0.67548 0.700098,3.39662 5.224528,0.0928 0.871673,-0.0516 6.004184,0.0511 0.226893,-0.18094 0.112544,-1.32048 -0.755634,-1.31106 -0.622794,-2.55329 0.659288,-4.33073 1.432212,-6.05269 1.030623,-2.2961 1.765705,-4.13663 1.765705,-4.13663 0,0 0.525895,-1.75994 0.345147,-2.76653 -1.536509,-2.2754 -5.175037,-2.65856 -6.154709,-5.81099 -0.559789,-1.40734 -0.0073,-5.95593 5.246565,-4.73546 1.04946,0.47902 1.166247,0.72214 1.58099,1.36093 0.465833,-0.55084 0.734126,-0.85505 1.529419,-1.11716 0.707837,-0.23328 1.548147,-0.0915 1.708068,-0.30789 0.360337,-0.48888 0.29269,-1.11037 0.29269,-1.11037 l -0.381747,-1.33884 c 0,0 -3.321294,0.22804 -6.443325,-0.17225 -3.316914,-0.96711 -7.269261,-4.1546 -3.517522,-7.74004 2.230943,-1.06876 2.077901,1.35731 4.156204,2.44206 0.04899,-0.0774 -0.17412,-0.84721 0.517435,-1.49386 0.558274,0.1944 -0.08834,1.15522 0.385019,1.74807 0.69764,0.29478 1.414422,0.32687 2.585844,0.17255 z m -2.754207,-4.37577 c 0.07637,0.31164 0.400309,1.11216 1.119089,1.19532 0.479524,0.0895 0.717346,0.0525 0.921822,-0.17097 0.05657,-0.4778 -0.385837,-0.46919 -0.978566,-0.67198 -0.443284,-0.15165 -0.395084,-1.16258 -0.852365,-1.11757 -0.285344,0.0281 -0.20998,0.7652 -0.20998,0.7652 z" /><path
       id="path590"
       style="fill:none;stroke:#ff0000;stroke-width:0.162722px;stroke-linecap:butt;stroke-linejoin:miter;stroke-opacity:1"
       d="m 62.170927,175.51886 c 0.227848,-0.0288 0.357687,-0.2558 0.659289,-0.1856 0.30923,0.16426 0.432055,0.45023 0.01496,0.6683 -0.4171,0.21805 -0.718963,0.0762 -1.037863,0.0722 -0.471454,-0.13837 -0.868975,-0.61062 -0.08566,-0.71098 0.06409,0.005 0.173932,0.0432 0.449281,0.15609 z m 3.919669,-0.14535 a 0.86389757,0.86389757 0 0 1 -0.863898,0.8639 0.86389757,0.86389757 0 0 1 -0.863897,-0.8639 0.86389757,0.86389757 0 0 1 0.863897,-0.8639 0.86389757,0.86389757 0 0 1 0.863898,0.8639 z m -5.426947,4.93844 c 0.941532,0.4017 1.8791,0.53276 2.509993,1.4576 0.72575,1.01333 0.700218,2.05999 0.833833,3.03572 0.08208,0.59938 0.180857,0.75707 0.01771,1.64106 0.327217,0.48618 0.378768,1.74787 -0.05348,3.02875 -0.131722,0.16076 -0.434157,0.38534 -0.878146,0.42964 -0.687746,0.0686 -0.905646,0.0226 -2.055566,-0.11977 -3.574251,-1.00539 -2.792069,-4.22671 -4.811943,-2.98719 -0.476946,0.17644 -1.243467,1.33189 -1.410124,1.83003 -0.436414,1.30444 0.558987,2.841 1.545291,3.6172 1.983713,1.88128 6.068557,2.34251 8.934538,1.68959 1.258335,-0.28667 2.159091,-1.88488 2.879056,-2.39246 0.323171,0.0709 0.464371,0.25566 0.405501,0.58122 -0.63366,0.96279 -1.649233,1.3384 -2.303995,2.1897 0.0967,0.1865 0.303429,0.8251 0.353989,1.42969 0.04057,0.48511 -0.05311,0.94831 -0.131566,1.13849 0.336957,0.97424 4.054936,1.09379 1.755814,5.97534 -2.438149,3.20545 -4.847486,3.57977 -5.445872,4.52038 -0.539567,0.93558 -0.0088,1.0207 -0.655561,3.25753 0.34119,1.2319 1.28759,4.04592 3.426485,7.45445 -0.0284,1.24204 -0.112549,2.35039 -1.689588,3.94783 3.651618,0 4.235323,0.003 8.934537,-6.9e-4 1.36935,-2.4583 0.09287,-2.69593 0.919136,-6.67725 0.108929,-0.63844 0.233499,-0.7499 1.326934,-2.45237 6.068558,-3.63335 6.105469,-10.96586 5.498999,-17.24146 -4.432659,-13.03289 -6.965152,-14.31313 -10.709765,-18.86014 -0.501629,-0.58062 -1.149554,-1.34913 -1.901315,-2.1448 -0.04958,-0.85266 -0.190986,-1.93934 -0.513635,-2.51411 -0.982231,0.0164 -0.928997,1.02175 -1.540904,0.93265 -0.974961,-0.57887 -1.075115,-0.79945 -1.257051,-1.04079 -0.768829,0.74224 -1.07177,1.17321 -1.689588,1.60849 -1.285796,0.21715 -2.098839,1.20707 -2.757407,1.70311 -0.751069,0.35154 -1.431563,0.2524 -2.189706,0.67583 -0.325141,0.27154 -0.589887,1.01878 -0.500117,1.43277 l 3e-6,-2.6e-4 c 0.289635,0.90265 0.584,1.31629 1.434289,1.82153 0,0 0.39521,-0.1152 0.815807,-0.41812 0.250532,-0.18043 0.515258,-0.51044 0.696545,-0.69379 0.464504,-0.46979 0.682591,0.15081 0.608251,0.32547 -0.07434,0.17464 -0.960419,1.284 -1.249652,1.3615 0.263843,0.16962 0.583486,0.34466 0.848265,0.45763 z m -1.915532,-3.16861 a 0.37508838,0.56094298 39.740081 0 1 -0.647041,0.19154 0.37508838,0.56094298 39.740081 0 1 0.07019,-0.67114 0.37508838,0.56094298 39.740081 0 1 0.64704,-0.19153 0.37508838,0.56094298 39.740081 0 1 -0.07019,0.67113 z" /><g
       aria-label="                                       Klemen"
       id="text651"
       style="font-size:5.51434px;line-height:1.25;stroke-width:0.137859"><path
         d="m 74.948388,206.40288 c -0.14534,0.0209 -0.257176,0.0784 -0.33854,0.15281 -0.435298,0.39832 -0.04732,1.41862 0.09355,1.8503 0.0439,0.15417 0.05837,0.268 0.05084,0.34963 -0.230455,-0.26002 -0.457532,-0.50818 -0.654829,-0.72379 l -0.457878,-0.50039 c -0.07445,-0.0814 -0.121197,-0.0834 -0.157811,-0.0499 -0.02034,0.0186 -0.03358,0.0532 -0.04682,0.0877 -0.01359,0.0423 -0.164615,0.36739 -0.351752,0.53863 l -0.0122,0.0112 c -0.05696,0.0521 -0.130794,0.0449 -0.211388,0.014 -0.02303,-0.009 -0.04302,0.002 -0.05929,0.0169 -0.02441,0.0223 -0.03765,0.0569 -0.04648,0.0799 -0.0044,0.0115 0.0027,0.0274 0.0213,0.0478 0.04839,0.0529 0.170627,0.11295 0.35734,0.0393 0.03964,-0.0138 0.07591,-0.0396 0.108459,-0.0693 0.09357,-0.0856 0.153289,-0.20006 0.153289,-0.20006 0.227768,0.23257 0.630844,0.64857 1.036606,1.092 0.364813,0.39869 0.736035,0.82888 0.990128,1.17191 0.231758,0.31863 0.392708,0.64972 0.0998,0.91775 -0.05289,0.0484 -0.117287,0.0924 -0.197269,0.13566 -0.19788,0.0615 -0.431258,0.0433 -0.610713,-0.0466 -0.09921,-0.0512 -0.193653,-0.12178 -0.268105,-0.20314 -0.01861,-0.0203 -0.04095,-0.0447 -0.05549,-0.0688 -0.07004,-0.0929 -0.116358,-0.19251 -0.135583,-0.28703 -0.01923,-0.0945 -0.0073,-0.18767 0.03547,-0.27164 0.02545,-0.0457 0.06275,-0.0948 0.107502,-0.13575 l 0.02848,-0.026 c 0.133214,-0.0995 0.252071,-0.0513 0.341413,0.0464 0.0335,0.0366 0.05887,0.0807 0.08424,0.12473 0.0142,0.0318 0.03584,0.0718 0.04597,0.10742 -0.03151,0.006 -0.05964,0.0247 -0.08405,0.047 -0.0895,0.0819 -0.09538,0.21434 -0.0172,0.29978 0.05212,0.057 0.133055,0.0801 0.204209,0.0598 0.05895,-0.009 0.11859,-0.0338 0.163341,-0.0747 0.06916,-0.0633 0.112261,-0.15505 0.108272,-0.24109 -0.0036,-0.18361 -0.07421,-0.35067 -0.178447,-0.46458 -0.186129,-0.20341 -0.483828,-0.26735 -0.774665,-0.0461 -0.01627,0.0149 -0.03627,0.0257 -0.05254,0.0406 -0.05696,0.0521 -0.102742,0.11644 -0.132948,0.18145 -0.06379,0.11816 -0.07745,0.25026 -0.05217,0.38409 0.02563,0.12603 0.07871,0.24938 0.167357,0.3626 0.01827,0.0281 0.04433,0.0566 0.06666,0.081 0.08934,0.0976 0.194957,0.18038 0.31719,0.24045 0.396827,0.20495 0.877595,0.10138 1.174574,-0.17037 0.305116,-0.27919 0.419342,-0.74249 0.05089,-1.23501 -0.198946,-0.26643 -0.491993,-0.61119 -0.800277,-0.96443 0.09219,-0.0545 0.235798,-0.0364 0.474468,0.12643 0.394061,0.26728 1.340873,1.00793 1.837194,0.55377 0.06102,-0.0558 0.110878,-0.12388 0.15398,-0.21564 0.01696,-0.0305 0.0109,-0.0698 -0.01516,-0.0982 -0.0037,-0.004 -0.01117,-0.0122 -0.02268,-0.0166 -0.0342,-0.021 -0.07349,-0.015 -0.101972,0.0111 -0.0081,0.007 -0.01627,0.0149 -0.02069,0.0264 -0.03021,0.065 -0.06751,0.1141 -0.108193,0.15133 -0.496321,0.45415 -1.522933,-1.21507 -2.135346,-0.87144 0.16581,-0.5703 -0.770128,-1.732 -0.371444,-2.09681 0.05289,-0.0484 0.128455,-0.0802 0.230772,-0.0991 0.01965,-0.003 0.03185,-0.0142 0.04406,-0.0254 0.02034,-0.0186 0.03324,-0.0454 0.02683,-0.0769 -0.003,-0.0197 -0.01013,-0.0356 -0.0213,-0.0478 -0.02233,-0.0244 -0.04943,-0.0295 -0.08094,-0.0231 z"
         style="font-family:Darling;-inkscape-font-specification:Darling"
         id="path736" /><path
         d="m 76.877878,207.38792 c -0.03087,-0.0131 -0.07021,0.008 -0.08798,0.0355 -0.01185,0.0186 -0.01439,0.0431 -0.0093,0.066 0.05707,0.0952 0.720887,0.6748 0.859921,1.03137 0.02916,0.0774 0.02786,0.16157 -0.01064,0.22204 -0.03258,0.0512 -0.09011,0.0799 -0.177651,0.0634 -0.153516,-0.0259 -0.385665,-0.15407 -0.613579,-0.2992 -0.358152,-0.22807 -0.706562,-0.50224 -0.706562,-0.50224 0,0 -0.464886,-1.08708 -1.050952,-1.46028 -0.148843,-0.0948 -0.302775,-0.14051 -0.464343,-0.11265 -0.106586,0.0237 -0.195422,0.0913 -0.2517,0.17967 -0.05331,0.0837 -0.07407,0.18818 -0.03984,0.28843 0.0638,0.19753 0.279846,0.43317 0.521693,0.65909 0.328948,0.29446 1.054509,0.90032 1.631273,1.2676 0.232566,0.1481 0.44442,0.25686 0.592012,0.29201 0.268965,0.0601 0.518514,-0.003 0.706807,-0.28865 l 0.003,-0.005 c 0.245842,-0.38606 -0.4526,-1.1577 -0.820054,-1.39169 -0.02791,-0.0178 -0.05582,-0.0356 -0.08204,-0.0457 z m -2.310655,-0.76538 c 0.07065,-0.0596 0.167492,-0.0372 0.279123,0.0339 0.372106,0.23696 0.875148,1.02799 0.933487,1.11091 -0.121351,-0.0969 -1.322203,-0.97273 -1.215572,-1.14018 z"
         style="font-family:Darling;-inkscape-font-specification:Darling"
         id="path738" /><path
         d="m 77.498158,206.04064 c -0.0095,0.008 -0.01176,0.0129 -0.01624,0.023 -0.01344,0.0302 -0.0039,0.0767 0.02685,0.10247 0.199851,0.16129 0.393526,0.40432 0.53065,0.65239 0.169586,0.31077 0.202015,0.53642 0.139278,0.6775 -0.09859,0.2217 -0.413812,0.23843 -0.776592,0.0771 l -0.07054,-0.0314 c 0.03083,-0.19148 -0.01671,-0.42385 -0.09785,-0.63494 -0.10521,-0.25198 -0.263615,-0.47933 -0.415888,-0.57118 -0.03807,-0.023 -0.08397,-0.0554 -0.13436,-0.0778 -0.125965,-0.056 -0.279933,-0.0762 -0.390258,0.0497 -0.06664,0.0549 -0.113123,0.11867 -0.144491,0.18921 -0.192692,0.43332 0.298765,1.09242 0.908437,1.36353 0.332549,0.14788 0.699275,0.17819 1.005013,0.006 0.09687,-0.0414 0.180308,-0.10691 0.240236,-0.20096 0.01848,-0.028 0.02969,-0.0532 0.04313,-0.0834 0.129955,-0.29224 0.0012,-0.57278 -0.149322,-0.84492 -0.145519,-0.2699 -0.359906,-0.53421 -0.570391,-0.7123 l -0.02015,-0.009 c -0.04031,-0.0179 -0.0795,-0.0112 -0.107505,0.0246 z m -0.986049,0.35814 c 0.04199,5.6e-4 0.0795,0.0112 0.114773,0.0269 0.201544,0.0896 0.375054,0.37801 0.439409,0.54543 0.06156,0.16014 0.106313,0.33092 0.09565,0.47705 -0.434983,-0.28395 -0.775302,-0.76721 -0.649828,-1.04937 z"
         style="font-family:Darling;-inkscape-font-specification:Darling"
         id="path740" /><path
         d="m 78.19807,203.22772 c -0.0061,0.0496 0.03714,0.0825 0.08007,0.0926 0.684739,0.31513 0.920858,0.58637 0.885284,0.73662 -0.02668,0.11269 -0.190619,0.15887 -0.429263,0.1137 -0.0723,-0.006 -0.148693,-0.0182 -0.218451,-0.0347 -0.214639,-0.0508 -0.427022,-0.1351 -0.630929,-0.18338 -0.139516,-0.033 -0.270841,-0.0528 -0.400327,-0.0325 -0.08275,0.0144 -0.149814,0.1062 -0.175223,0.21352 -0.0216,0.0912 -0.01637,0.18879 0.02332,0.26053 0.13007,0.24046 0.536764,0.46142 0.685323,0.57593 l -0.0161,-0.004 c -0.128784,-0.0305 -0.316878,-0.0977 -0.515419,-0.1447 -0.348789,-0.0826 -0.71692,-0.10741 -0.80134,0.20128 l -0.0013,0.005 c -0.06098,0.25757 0.68731,0.73508 0.889529,0.8623 -0.0322,-0.008 -0.07103,-0.0112 -0.113956,-0.0213 -0.118052,-0.028 -0.265759,-0.0743 -0.38381,-0.1022 -0.04293,-0.0102 -0.08176,-0.0137 -0.113957,-0.0213 -0.172982,-0.0353 -0.301616,0.0533 -0.329566,0.17131 -0.02287,0.0966 0.02402,0.20969 0.182742,0.28127 0.206733,0.0603 0.703229,0.18917 1.00909,0.26159 l 0.171711,0.0406 c 0.139516,0.033 0.25135,-0.008 0.307117,-0.14829 0.01426,-0.0363 0.02598,-0.0619 0.03233,-0.0887 0.02541,-0.10732 -0.02345,-0.16422 -0.157886,-0.21872 -0.247403,-0.10391 -1.275162,-0.78926 -1.242129,-0.92877 0.0079,-0.009 0.04137,-0.007 0.100399,0.007 0.209273,0.0496 0.684873,0.21882 1.039028,0.30267 0.209274,0.0496 0.379431,0.0728 0.430968,0.0227 0.04773,-0.034 0.09517,-0.0908 0.112954,-0.16593 0.01906,-0.0805 5.53e-4,-0.16987 -0.100698,-0.24485 -0.15802,-0.12241 -0.983695,-0.58424 -0.948121,-0.73449 l 0.0025,-0.0107 c 0.0013,-0.005 0.01737,-0.002 0.0442,0.005 0.144881,0.0343 0.61667,0.21968 0.675696,0.23365 0.04293,0.0102 0.08458,0.0257 0.127513,0.0359 0.321959,0.0762 0.573024,0.045 0.810233,-0.23884 0.05535,-0.0662 0.08796,-0.13217 0.104479,-0.20193 0.09021,-0.38099 -0.404049,-0.75868 -0.788711,-0.92909 -0.05112,-0.0234 -0.11297,-0.0494 -0.171996,-0.0634 -0.08049,-0.0191 -0.149963,-0.0128 -0.172832,0.0838 z"
         style="font-family:Darling;-inkscape-font-specification:Darling"
         id="path742" /><path
         d="m 78.234673,201.64097 c -0.0065,0.0105 -0.0071,0.016 -0.0081,0.0269 -0.0031,0.0329 0.02068,0.074 0.05806,0.0886 0.240786,0.0893 0.501728,0.25809 0.71066,0.44963 0.259661,0.24066 0.362205,0.44425 0.347621,0.59797 -0.02292,0.24154 -0.316432,0.35771 -0.71169,0.32021 l -0.07686,-0.007 c -0.0317,-0.19134 -0.150711,-0.3965 -0.294808,-0.5708 -0.17992,-0.2054 -0.402435,-0.37053 -0.576021,-0.40916 -0.0434,-0.01 -0.09725,-0.0258 -0.152149,-0.031 -0.137242,-0.013 -0.289631,0.0168 -0.354142,0.17135 -0.04572,0.0732 -0.06948,0.1485 -0.07677,0.22536 -0.04479,0.47211 0.630846,0.94057 1.295098,1.00359 0.362319,0.0344 0.719628,-0.0536 0.954799,-0.31377 0.07866,-0.0701 0.136919,-0.15872 0.163805,-0.26695 0.0086,-0.0324 0.01122,-0.0599 0.01434,-0.0928 0.03021,-0.3184 -0.181087,-0.54339 -0.410415,-0.75348 -0.223837,-0.20957 -0.511187,-0.39192 -0.7674,-0.49378 l -0.02196,-0.002 c -0.04392,-0.004 -0.07894,0.0147 -0.09408,0.0575 z m -0.820838,0.65328 c 0.03999,-0.0128 0.07894,-0.0147 0.117367,-0.011 0.219588,0.0208 0.475843,0.23902 0.590126,0.37726 0.109315,0.13223 0.206088,0.27989 0.242474,0.42182 -0.502729,-0.13078 -0.979134,-0.48063 -0.949967,-0.78806 z"
         style="font-family:Darling;-inkscape-font-specification:Darling"
         id="path744" /><path
         d="m 78.359904,199.58504 c 0.02214,-0.005 0.04971,-0.005 0.0828,-0.004 0.380437,0.006 1.125004,0.33846 1.120997,0.58106 -0.0013,0.0772 -0.08516,0.1475 -0.284471,0.19384 -0.04429,0.0103 -0.110545,0.0147 -0.187735,0.0134 -0.226057,-0.004 -0.567262,-0.048 -0.881537,-0.0532 -0.408005,-0.007 -0.767481,0.0535 -0.772672,0.36778 l -1.82e-4,0.011 c 0.0062,0.2924 0.883367,0.61022 1.108422,0.6746 -0.242598,-0.004 -0.468655,-0.008 -0.716584,-0.0229 l -0.08822,-0.001 c -0.187462,-0.003 -0.386406,0.0212 -0.390322,0.25828 l -1.82e-4,0.011 c 0.0033,0.13242 0.189515,0.21271 0.305301,0.21462 l 0.01103,1.8e-4 c 0.424455,0.0125 0.849001,0.0195 1.240466,0.026 0.159894,0.003 0.253989,-0.0179 0.30607,-0.16591 0.01157,-0.0329 0.01754,-0.0604 0.01809,-0.0935 0.0015,-0.0882 -0.0468,-0.17174 -0.139529,-0.23393 -0.350411,-0.1547 -1.283076,-0.45137 -1.281164,-0.56716 8.19e-4,-0.0496 0.06726,-0.0651 0.14996,-0.0637 0.09373,0.002 0.214665,0.0256 0.275224,0.0321 0.15962,0.0192 0.379618,0.0559 0.605675,0.0596 0.23157,0.004 0.469201,-0.0253 0.641944,-0.13279 0.206188,-0.12896 0.29135,-0.27646 0.293809,-0.42533 0.0071,-0.43006 -0.702834,-0.85541 -1.381005,-0.86661 l -0.02757,-4.6e-4 c -0.0612,0.0321 -0.0838,0.0648 -0.08434,0.0979 -6.38e-4,0.0386 0.03741,0.0723 0.07573,0.0895 z"
         style="font-family:Darling;-inkscape-font-specification:Darling"
         id="path746" /></g><g
       aria-label="        Tanja "
       id="text705"
       style="font-size:5.39164px;line-height:1.25;stroke-width:0.134791"><path
         d="m 50.302803,205.81214 c -0.08815,0.02 -0.153306,0.0905 -0.161074,0.1872 -0.0086,0.10748 0.07002,0.20575 0.177077,0.21976 -0.04774,0.0557 -0.114823,0.0827 -0.179315,0.0776 -0.09674,-0.008 -0.182492,-0.085 -0.168682,-0.25695 l 0.0026,-0.0322 c 0.03382,-0.21906 0.1029,-0.47314 0.166609,-0.72766 0.129731,-0.33576 0.201835,-0.62746 0.221255,-0.86931 0.05092,-0.63417 -0.226737,-0.94855 -0.49008,-0.9697 -0.166604,-0.0134 -0.32658,0.0928 -0.397154,0.29806 0.511386,0.16547 0.64437,0.46283 0.616319,0.81216 -0.0082,0.10211 -0.02715,0.20336 -0.05728,0.30912 -0.02644,-0.008 -0.05869,-0.0101 -0.09631,-0.0131 l -3.689584,-0.32872 c -0.06943,-0.011 -0.133927,-0.0162 -0.176922,-0.0196 0,0 0.05292,-0.12016 0.06285,-0.24377 0.0035,-0.043 0.0015,-0.0864 -0.01157,-0.12534 -0.05155,-0.16641 -0.154718,-0.22878 -0.229095,-0.24557 l -0.01612,-0.001 c -0.05912,-0.005 -0.08987,0.0415 -0.09333,0.0845 -0.0022,0.0269 0.0064,0.0546 0.02707,0.0671 0.07803,0.0387 0.12208,0.0963 0.11647,0.16621 l -0.0013,0.0161 c -0.02028,0.2526 -0.180534,0.56427 -0.205052,0.60016 -0.01828,0.0256 -0.02581,0.052 -0.02797,0.0789 -0.0043,0.0537 0.02448,0.0993 0.13734,0.10839 l 0.349332,0.0281 3.678403,0.33323 c -0.102624,0.26762 -0.204385,0.52449 -0.222078,0.74484 -0.01424,0.17735 0.02785,0.32677 0.16519,0.43516 0.137339,0.10839 0.268677,0.1568 0.386913,0.1663 0.327834,0.0263 0.54634,-0.26986 0.567486,-0.5332 0.0151,-0.1881 -0.07406,-0.35753 -0.29441,-0.37522 -0.04837,-0.004 -0.09717,-0.002 -0.157582,0.009 z"
         style="font-family:Darling;-inkscape-font-specification:Darling"
         id="path755" /><path
         d="m 47.461525,208.13666 c 0.03757,-0.0219 0.05888,-0.0544 0.05867,-0.0813 -8.5e-5,-0.0108 -0.0055,-0.0161 -0.0056,-0.0215 -0.01651,-0.043 -0.07043,-0.0426 -0.10821,-0.0477 -0.404657,-0.0346 -1.237906,-0.40546 -1.239556,-0.61573 -3.81e-4,-0.0485 0.04245,-0.0866 0.13929,-0.11432 0.102226,-0.0278 0.269277,-0.0399 0.457979,-0.0413 0.501407,-0.004 1.1705,0.0609 1.240589,0.0603 l 0.0054,-4e-5 c 0.177919,-0.001 0.241686,-0.12052 0.24084,-0.22834 -6.35e-4,-0.0809 -0.03897,-0.15606 -0.09301,-0.17181 -0.140433,-0.0312 -1.557357,-0.57549 -1.559303,-0.8235 -1.7e-4,-0.0216 0.01049,-0.0378 0.03193,-0.0542 0.03218,-0.0218 0.09136,-0.0385 0.177623,-0.0391 0.40436,-0.003 1.296069,0.25942 1.298989,0.63143 l 3.38e-4,0.0431 c 3.39e-4,0.0431 0.03833,0.0752 0.09225,0.0748 l 0.01078,-8e-5 c 0.04848,-0.006 0.08605,-0.0276 0.11267,-0.071 0.06402,-0.0868 0.09026,-0.17864 0.08958,-0.2649 -0.0031,-0.39358 -0.609599,-0.7285 -0.939156,-0.81218 -0.140475,-0.0366 -0.286256,-0.0625 -0.426435,-0.0614 -0.350445,0.003 -0.645749,0.16143 -0.663803,0.60909 l 4.2e-5,0.005 c 0.0023,0.29653 1.100308,0.73544 1.100308,0.73544 -0.188786,-0.009 -0.44783,-0.0396 -0.690447,-0.0377 -0.210267,0.002 -0.414932,0.0302 -0.554391,0.12297 -0.139459,0.0928 -0.235448,0.22831 -0.234263,0.37927 5.5e-4,0.0701 0.02267,0.14001 0.06635,0.20976 0.229192,0.34867 0.997067,0.6338 1.298989,0.63143 0.03774,-3e-4 0.07005,-0.006 0.09153,-0.0169 z"
         style="font-family:Darling;-inkscape-font-specification:Darling"
         id="path757" /><path
         d="m 47.589895,210.12048 c -0.02105,0.007 -0.04792,0.009 -0.08016,0.012 -0.370774,0.0305 -1.127186,-0.22113 -1.146616,-0.45757 -0.0062,-0.0752 0.06868,-0.15171 0.258152,-0.21597 0.0421,-0.0143 0.106146,-0.025 0.181375,-0.0311 0.220315,-0.0181 0.556565,-0.008 0.862855,-0.033 0.397641,-0.0327 0.741621,-0.12587 0.71645,-0.43216 l -8.83e-4,-0.0108 c -0.03415,-0.28391 -0.918204,-0.5088 -1.143376,-0.5498 0.236435,-0.0194 0.45675,-0.0375 0.699442,-0.0467 l 0.08598,-0.007 c 0.1827,-0.015 0.373939,-0.0578 0.35495,-0.28884 l -8.83e-4,-0.0108 c -0.01597,-0.12852 -0.204854,-0.18873 -0.317698,-0.17946 l -0.01075,8.8e-4 c -0.414203,0.0286 -0.827965,0.0626 -1.209485,0.094 -0.155832,0.0128 -0.245416,0.0418 -0.281854,0.19087 -0.0081,0.0331 -0.01126,0.0604 -0.0086,0.0927 0.0071,0.086 0.06205,0.16261 0.158259,0.21421 0.355829,0.11682 1.29185,0.3158 1.301123,0.42864 0.004,0.0484 -0.05918,0.0698 -0.139786,0.0764 -0.09135,0.008 -0.211334,-0.004 -0.270884,-0.005 -0.157157,-0.003 -0.374748,-0.0179 -0.595062,2.2e-4 -0.225688,0.0185 -0.4541,0.0698 -0.611848,0.19093 -0.188222,0.14531 -0.256901,0.29702 -0.244978,0.4421 0.03444,0.41914 0.766123,0.76474 1.427066,0.71043 l 0.02687,-0.002 c 0.05646,-0.0371 0.0753,-0.0711 0.07265,-0.10335 -0.0031,-0.0376 -0.04336,-0.0668 -0.0823,-0.0798 z"
         style="font-family:Darling;-inkscape-font-specification:Darling"
         id="path759" /><path
         d="m 47.806638,211.14058 c -0.05358,-0.19958 -0.146387,-0.36678 -0.331783,-0.57613 0.513132,-0.0678 0.94538,-0.13043 1.116424,-0.15304 l 0.01069,-0.001 c 0.22984,-0.0304 0.307987,-0.13862 0.29456,-0.24017 -0.0099,-0.0748 -0.07395,-0.14795 -0.163707,-0.16871 -0.07797,-0.0549 -1.322277,0.0769 -1.776612,0.13699 -0.338992,-0.17816 -0.731525,-0.26766 -1.09349,-0.29051 -0.192026,-0.0127 -0.381225,-0.004 -0.536234,0.0165 -0.04811,0.006 -0.09551,0.0181 -0.138267,0.0237 -0.200995,0.0429 -0.354282,0.11754 -0.423858,0.20832 -0.04175,0.0545 -0.05677,0.1054 -0.04899,0.16419 0.0049,0.0374 0.02058,0.0734 0.04762,0.11336 7.07e-4,0.005 0.0068,0.01 0.0075,0.0153 0.122488,0.3917 1.428729,0.3169 2.495236,0.19765 0.207483,0.21186 0.312394,0.38834 0.373439,0.60325 0.01029,0.0367 0.0466,0.0645 0.08936,0.0589 l 0.01604,-0.002 c 0.04205,-0.011 0.06918,-0.0527 0.06352,-0.0954 z m -2.829268,-0.99645 c 0.06061,-0.0352 0.14401,-0.0625 0.244861,-0.0813 0.0474,-0.0117 0.100851,-0.0188 0.159647,-0.0266 0.138973,-0.0184 0.301447,-0.0235 0.471386,-0.0134 0.279669,0.0174 0.473417,0.0843 0.740185,0.16863 -1.205789,0.0942 -1.604772,0.0381 -1.615372,-0.042 z m 4.06105,-0.0529 c 0.01696,0.12829 0.175413,0.21611 0.351802,0.19279 0.181734,-0.024 0.306574,-0.14931 0.289613,-0.27759 -0.01696,-0.12828 -0.16936,-0.21147 -0.351095,-0.18744 -0.176389,0.0233 -0.30728,0.14396 -0.29032,0.27224 z"
         style="font-family:Darling;-inkscape-font-specification:Darling"
         id="path761" /><path
         d="m 48.232843,213.58928 c 0.03322,-0.028 0.04858,-0.0638 0.0437,-0.0903 -0.002,-0.0106 -0.0082,-0.0149 -0.0092,-0.0202 -0.02371,-0.0395 -0.07674,-0.0297 -0.114831,-0.0282 -0.40453,0.036 -1.289415,-0.18497 -1.32745,-0.39177 -0.0088,-0.0477 0.02682,-0.0927 0.117389,-0.13672 0.09587,-0.045 0.258308,-0.0859 0.443903,-0.12001 0.493151,-0.0907 1.163364,-0.1427 1.232299,-0.15538 l 0.0053,-9.8e-4 c 0.174989,-0.0322 0.217166,-0.16054 0.19766,-0.2666 -0.01463,-0.0795 -0.0654,-0.14695 -0.121355,-0.1531 -0.143721,-0.006 -1.633482,-0.29712 -1.678345,-0.54104 -0.0039,-0.0212 0.0038,-0.0391 0.02206,-0.0589 0.02792,-0.0271 0.08332,-0.0537 0.168162,-0.0693 0.397703,-0.0731 1.321412,0.0311 1.388706,0.39696 l 0.0078,0.0424 c 0.0078,0.0424 0.05077,0.0674 0.1038,0.0577 l 0.01061,-0.002 c 0.04675,-0.0141 0.07997,-0.0421 0.09868,-0.0894 0.04803,-0.0965 0.05796,-0.19157 0.04236,-0.27641 -0.0712,-0.3871 -0.72654,-0.61194 -1.065609,-0.63729 -0.144697,-0.0118 -0.292746,-0.0119 -0.430617,0.0134 -0.344675,0.0634 -0.608041,0.27081 -0.548304,0.71483 l 9.75e-4,0.005 c 0.05364,0.29165 1.211036,0.53379 1.211036,0.53379 -0.187545,0.0235 -0.447926,0.0385 -0.686547,0.0824 -0.206806,0.038 -0.403432,0.10161 -0.524723,0.21711 -0.12129,0.11551 -0.192357,0.26563 -0.165049,0.41411 0.01268,0.0689 0.04657,0.13396 0.101668,0.1951 0.286106,0.30371 1.091754,0.45157 1.388705,0.39695 0.03712,-0.007 0.06796,-0.018 0.08722,-0.0325 z"
         style="font-family:Darling;-inkscape-font-specification:Darling"
         id="path763" /></g></g></svg>
